<svg version="1.1" id="Layer_1" xmlns="http://www.w3.org/2000/svg" xmlns:xlink="http://www.w3.org/1999/xlink" x="0px" y="0px"
	 width="100%" viewBox="0 0 192 192" enable-background="new 0 0 192 192" xml:space="preserve">
<path fill="#232323" opacity="1.000000" stroke="none" 
	d="
M1.000000,183.000000 
	C1.000000,125.979103 1.000000,68.958206 1.346474,11.443815 
	C4.795299,7.633543 7.897649,4.316772 11.000000,1.000000 
	C68.020897,1.000000 125.041786,1.000000 182.556183,1.346470 
	C186.366455,4.795291 189.683228,7.897644 193.000000,10.999998 
	C193.000000,68.020897 193.000000,125.041786 192.653503,182.556183 
	C189.204681,186.366440 186.102341,189.683212 183.000000,193.000000 
	C125.979103,193.000000 68.958206,193.000000 11.443812,192.653534 
	C7.633540,189.204697 4.316770,186.102356 1.000000,183.000000 
M157.894012,146.589066 
	C150.863388,135.551971 143.832764,124.514877 136.686172,113.295738 
	C138.210617,112.412582 139.347443,111.767838 140.471115,111.100906 
	C156.312164,101.698669 163.797699,82.743988 158.740982,64.411003 
	C154.988129,50.805130 141.785431,34.296291 120.034393,35.081486 
	C108.725273,35.489738 97.389244,35.152790 86.065376,35.152554 
	C80.620636,35.152439 75.175888,35.152534 69.566696,35.152534 
	C69.566696,76.741142 69.566696,117.761314 69.566696,158.685730 
	C75.800720,158.685730 81.694885,158.685730 88.101151,158.685730 
	C88.101151,144.265244 88.101151,130.217957 88.101151,116.005386 
	C96.777161,116.005386 104.928711,116.147911 113.070770,115.932228 
	C116.142021,115.850868 117.824394,116.950600 119.418037,119.507156 
	C127.073372,131.788010 134.918152,143.951279 142.769562,156.108566 
	C143.509140,157.253754 144.731583,158.859329 145.785400,158.902756 
	C152.136414,159.164474 158.503632,159.032822 165.687927,159.032822 
	C162.821960,154.487686 160.532196,150.856384 157.894012,146.589066 
M46.941395,73.500008 
	C46.941395,60.889114 46.941395,48.278221 46.941395,35.413612 
	C40.677303,35.413612 34.918079,35.413612 28.833967,35.413612 
	C28.833967,76.539803 28.833967,117.595520 28.833967,158.717407 
	C34.897884,158.717407 40.781849,158.717407 46.941425,158.717407 
	C46.941425,130.417953 46.941425,102.458984 46.941395,73.500008 
z"/>
<path fill="#000000" opacity="1.000000" stroke="none" 
	d="
M10.513435,1.000000 
	C7.897649,4.316772 4.795299,7.633543 1.346474,10.975157 
	C1.000000,7.747543 1.000000,4.495087 1.000000,1.000000 
	C4.006597,1.000000 7.016734,1.000000 10.513435,1.000000 
z"/>
<path fill="#000000" opacity="1.000000" stroke="none" 
	d="
M193.000000,10.513433 
	C189.683228,7.897644 186.366455,4.795291 183.024841,1.346470 
	C186.252457,1.000000 189.504913,1.000000 193.000000,1.000000 
	C193.000000,4.006597 193.000000,7.016734 193.000000,10.513433 
z"/>
<path fill="#000000" opacity="1.000000" stroke="none" 
	d="
M1.000000,183.486572 
	C4.316770,186.102356 7.633540,189.204697 10.975155,192.653534 
	C7.747546,193.000000 4.495092,193.000000 1.000000,193.000000 
	C1.000000,189.993408 1.000000,186.983276 1.000000,183.486572 
z"/>
<path fill="#000000" opacity="1.000000" stroke="none" 
	d="
M183.486572,193.000000 
	C186.102341,189.683212 189.204681,186.366440 192.653503,183.024841 
	C193.000000,186.252457 193.000000,189.504898 193.000000,193.000000 
	C189.993408,193.000000 186.983276,193.000000 183.486572,193.000000 
z"/>
<path fill="#FAFAFA" opacity="1.000000" stroke="none" 
	d="
M158.068237,146.907074 
	C160.532196,150.856384 162.821960,154.487686 165.687927,159.032822 
	C158.503632,159.032822 152.136414,159.164474 145.785400,158.902756 
	C144.731583,158.859329 143.509140,157.253754 142.769562,156.108566 
	C134.918152,143.951279 127.073372,131.788010 119.418037,119.507156 
	C117.824394,116.950600 116.142021,115.850868 113.070770,115.932228 
	C104.928711,116.147911 96.777161,116.005386 88.101151,116.005386 
	C88.101151,130.217957 88.101151,144.265244 88.101151,158.685730 
	C81.694885,158.685730 75.800720,158.685730 69.566696,158.685730 
	C69.566696,117.761314 69.566696,76.741142 69.566696,35.152534 
	C75.175888,35.152534 80.620636,35.152439 86.065376,35.152554 
	C97.389244,35.152790 108.725273,35.489738 120.034393,35.081486 
	C141.785431,34.296291 154.988129,50.805130 158.740982,64.411003 
	C163.797699,82.743988 156.312164,101.698669 140.471115,111.100906 
	C139.347443,111.767838 138.210617,112.412582 136.686172,113.295738 
	C143.832764,124.514877 150.863388,135.551971 158.068237,146.907074 
M138.218109,62.439022 
	C134.940948,57.052937 130.410477,52.865570 124.028603,52.614861 
	C112.130463,52.147446 100.200867,52.480640 88.249023,52.480640 
	C88.249023,68.013954 88.249023,83.336662 88.249023,98.819511 
	C100.288193,98.819511 111.913002,98.912048 123.535324,98.781891 
	C129.683975,98.713043 134.340042,95.571724 137.486877,90.473000 
	C142.956863,81.610107 143.615555,72.411102 138.218109,62.439022 
z"/>
<path fill="#FDFDFD" opacity="1.000000" stroke="none" 
	d="
M46.941410,74.000015 
	C46.941425,102.458984 46.941425,130.417953 46.941425,158.717407 
	C40.781849,158.717407 34.897884,158.717407 28.833967,158.717407 
	C28.833967,117.595520 28.833967,76.539803 28.833967,35.413612 
	C34.918079,35.413612 40.677303,35.413612 46.941395,35.413612 
	C46.941395,48.278221 46.941395,60.889114 46.941410,74.000015 
z"/>
<path fill="#252525" opacity="1.000000" stroke="none" 
	d="
M138.441818,62.737667 
	C143.615555,72.411102 142.956863,81.610107 137.486877,90.473000 
	C134.340042,95.571724 129.683975,98.713043 123.535324,98.781891 
	C111.913002,98.912048 100.288193,98.819511 88.249023,98.819511 
	C88.249023,83.336662 88.249023,68.013954 88.249023,52.480640 
	C100.200867,52.480640 112.130463,52.147446 124.028603,52.614861 
	C130.410477,52.865570 134.940948,57.052937 138.441818,62.737667 
z"/>
</svg>